<svg width="322" height="65" viewBox="0 0 322 65" fill="none" xmlns="http://www.w3.org/2000/svg">
<rect width="322" height="65" rx="30" fill="white"/>
<path d="M123.12 19V19.4H110.52V31.4H122.2V31.8H110.52V46.6H124V47H107.2V19H123.12ZM117.52 11.36L120.4 11.28L116.2 17H115.68L117.52 11.36ZM139.968 47.16C134.981 47.16 131.288 45.7467 128.888 42.92C128.034 41.9067 127.341 40.56 126.808 38.88C126.274 37.2 126.008 35.16 126.008 32.76C126.008 30.36 126.394 28.2133 127.168 26.32C127.968 24.4 129.048 22.92 130.408 21.88C133.048 19.9333 136.234 18.96 139.968 18.96C141.034 18.96 142.074 19.0533 143.088 19.24C144.101 19.4 144.861 19.5733 145.368 19.76L146.088 20.04L145.968 20.44C144.154 19.72 142.154 19.36 139.968 19.36C137.141 19.36 134.781 20.28 132.888 22.12C131.448 23.48 130.434 25.48 129.848 28.12C129.501 29.6133 129.328 31.44 129.328 33.6C129.328 35.76 129.634 37.76 130.248 39.6C130.861 41.4133 131.554 42.76 132.328 43.64C133.128 44.52 134.088 45.2267 135.208 45.76C136.328 46.2667 137.221 46.56 137.888 46.64C138.554 46.72 139.354 46.76 140.288 46.76C141.248 46.76 142.328 46.6667 143.528 46.48C144.728 46.2933 145.634 46.12 146.248 45.96L147.168 45.68L147.288 46.08C145.261 46.8 142.821 47.16 139.968 47.16ZM166.695 47H151.495V19H154.815V46.6H166.695V47ZM169.594 47H169.114L181.074 19L181.514 18.8L191.594 47H188.194L185.074 38.2H173.394L169.594 47ZM179.834 23.32L173.554 37.8H184.954L179.834 23.32ZM201.424 47H198.104V19.4H191.184V19H208.384V19.4H201.424V47Z" fill="black"/>
<line x1="95" y1="49.5" x2="220" y2="49.5" stroke="black"/>
</svg>
